. 
  
http://www.torrenting.com/        :     Greatest Movie Tracker on The Net!!!
 
http://www.Torrenting.com          :     Once & For all ;)


               www . Torrenting . Com 

(((((((((((((= Enjoy No RAR releases =))))))))))))))))))))


...................................NFO:....................................

.
                  ______  _   _  _____ ______  _____  _____ 
                  | ___ \| | | ||  _  || ___ \|  _  |/  ___|
                  | |_/ /| |_| || | | || |_/ /| | | |\ `--. 
                  |  __/ |  _  || | | || ___ \| | | | `--. \        
                  | |    | | | |\ \_/ /| |_/ /\ \_/ //\__/ /
                  \_|    \_| |_/ \___/ \____/  \___/ \____/ 
 
                              Proudly presents
   
                Most.Wanted.1997.iNTERNAL.DVDRip.XviD-PHOBOS              
                                                                          
      Release Date .....: 9/Jun/2011                                      
      DVD RLS Date .....: 18/Feb/1998                                     
      Runtime ..........: 1:38:00                                         
      Language .........: English                                         
      Subtitles ........: English / French / Spanish                         
      URL ..............: http://www.imdb.com/title/tt0119709/            
      File Size ........: CD1: 699 MB / 733,887,688 bytes 50x15MB         
                          CD2: 699 MB / 733,663,002 bytes 50x15MB         
                                                                          
      Summary   
                                                                          
      Sgt. James Dunn, who is wrongly accused of assassination of the     
      officer he had a row with, is saved from death row and recruited    
      for top-secret special operations squad led by Lt. Col Grant Casey. 
      Their mission is to neutralize criminals who had avoided            
      conventional law enforcement methods. On his first Mission, James   
      is made the fall guy for the assassination of the first lady and    
      everyone is looking for him and Dr. Victoria Constantini who was    
      lucky to videotape what happened. One of the forces looking for him 
      is military, led by Gen. Adam Woodward, which is in fact an alias   
      for Grant Casey.                                                    
                                                                          
     Tech Info  
                                                                          
      CD1:                                                                
      Video                                                               
      ID                               : 0                                
      Format                           : MPEG-4 Visual                    
      Format profile                   : Advanced Simple@L5               
      Format settings, BVOP            : 2                                
      Format settings, QPel            : No                               
      Format settings, GMC             : No warppoints                    
      Format settings, Matrix          : Default (H.263)                  
      Codec ID                         : XVID                             
      Codec ID/Hint                    : XviD                             
      Duration                         : 52mn 14s                         
      Bit rate                         : 1 480 Kbps                       
      Width                            : 640 pixels                       
      Height                           : 272 pixels                       
      Display aspect ratio             : 2.35:1                           
      Frame rate                       : 23.976 fps                       
      Color space                      : YUV                              
      Chroma subsampling               : 4:2:0                            
      Bit depth                        : 8 bits                           
      Scan type                        : Progressive                      
      Compression mode                 : Lossy                            
      Bits/(Pixel*Frame)               : 0.355                            
      Stream size                      : 553 MiB (79%)                    
      Writing library                  : XviD 1.2.1 (UTC 2008-12-04)      
                                                                          
      Audio                                                               
      ID                               : 1                                
      Format                           : AC-3                             
      Format/Info                      : Audio Coding 3                   
      Mode extension                   : CM (complete main)               
      Codec ID                         : 2000                             
      Duration                         : 52mn 14s                         
      Bit rate mode                    : Constant                         
      Bit rate                         : 384 Kbps                         
      Channel(s)                       : 6 channels                       
      Channel positions                : Front: L C R, Side: L R, LFE     
      Sampling rate                    : 48.0 KHz                         
      Bit depth                        : 16 bits                          
      Compression mode                 : Lossy                            
      Stream size                      : 143 MiB (20%)                    
      Alignment                        : Aligned on interleaves           
      Interleave, duration             : 42 ms (1.00 video frame)         
      Interleave, preload duration     : 512 ms                           
                                                                          
      CD2:                                                                
      Video                                                               
      ID                               : 0                                
      Format                           : MPEG-4 Visual                    
      Format profile                   : Advanced Simple@L5               
      Format settings, BVOP            : 2                                
      Format settings, QPel            : No                               
      Format settings, GMC             : No warppoints                    
      Format settings, Matrix          : Default (H.263)                  
      Codec ID                         : XVID                             
      Codec ID/Hint                    : XviD                             
      Duration                         : 46mn 40s                         
      Bit rate                         : 1 702 Kbps                       
      Width                            : 640 pixels                       
      Height                           : 272 pixels                       
      Display aspect ratio             : 2.35:1                           
      Frame rate                       : 23.976 fps                       
      Color space                      : YUV                              
      Chroma subsampling               : 4:2:0                            
      Bit depth                        : 8 bits                           
      Scan type                        : Progressive                      
      Compression mode                 : Lossy                            
      Bits/(Pixel*Frame)               : 0.408                            
      Stream size                      : 568 MiB (81%)                    
      Writing library                  : XviD 1.2.1 (UTC 2008-12-04)      
                                                                          
      Audio                                                               
      ID                               : 1                                
      Format                           : AC-3                             
      Format/Info                      : Audio Coding 3                   
      Mode extension                   : CM (complete main)               
      Codec ID                         : 2000                             
      Duration                         : 46mn 40s                         
      Bit rate mode                    : Constant                         
      Bit rate                         : 384 Kbps                         
      Channel(s)                       : 6 channels                       
      Channel positions                : Front: L C R, Side: L R, LFE     
      Sampling rate                    : 48.0 KHz                         
      Bit depth                        : 16 bits                          
      Compression mode                 : Lossy                            
      Stream size                      : 128 MiB (18%)                    
      Alignment                        : Aligned on interleaves           
      Interleave, duration             : 42 ms (1.00 video frame)         
      Interleave, preload duration     : 512 ms                           
                                                                          
      Group Info   
                                                                          
      Our mission is to provide the scene with decent quality rips of old 
      Movie classics.                                                     
      Greets fly out to everyone that helped us; you know who you guys    
      are!                                                                
      Looking for decent affil sites (no OVH) and rippers/cappers.        
      Ask around for us or write to deimostv@hush.ai